<svg width="29" height="24" viewBox="0 0 29 24" fill="none" xmlns="http://www.w3.org/2000/svg">
<path d="M28.8649 5.26445C28.8206 5.06875 28.677 4.70015 28.0849 5.1903L24.3026 8.3203C23.7815 8.75155 22.929 8.75155 22.4079 8.3203L18.9463 5.45557C18.4252 5.02433 18.4252 4.31873 18.9463 3.88749L22.7285 0.757414C23.3129 0.27378 22.7528 0.125274 22.4538 0.0848727C20.0574 -0.23889 17.5137 0.363591 15.6658 1.89308C13.4824 3.70004 12.8009 6.1557 13.7431 8.41947C13.7977 8.55065 14.0159 8.93789 13.6272 9.25957C13.6272 9.25957 8.85673 13.2075 7.30612 14.4908C6.9551 14.7813 6.73646 14.6074 6.73646 14.6074C6.28052 14.2301 5.53444 14.2301 5.07858 14.6074L0.342076 18.5273C-0.113781 18.9046 -0.113781 19.522 0.342076 19.8994L4.95516 23.717C5.41101 24.0944 6.1571 24.0944 6.61304 23.717L11.3495 19.7972C11.8054 19.4198 11.8054 18.8025 11.3495 18.4251C11.3495 18.4251 11.1788 18.2116 11.4904 17.9537C13.0411 16.6704 17.8115 12.7224 17.8115 12.7224C18.2149 12.3885 18.5182 12.5393 18.6417 12.5761C21.4008 13.3989 24.5015 12.8652 26.7126 11.0354C28.6083 9.46643 29.3255 7.29191 28.8649 5.26445ZM7.35946 20.4085C6.5257 21.0985 5.17379 21.0985 4.33995 20.4085C3.50619 19.7184 3.50619 18.5996 4.33995 17.9095C5.17379 17.2194 6.5257 17.2194 7.35946 17.9095C8.1933 18.5996 8.1933 19.7184 7.35946 20.4085Z" fill="url(#paint0_linear_28_103)" stroke="url(#paint1_linear_28_103)" stroke-width="0.184796"/>
<defs>
<linearGradient id="paint0_linear_28_103" x1="29" y1="17.25" x2="5.1503" y2="17.3653" gradientUnits="userSpaceOnUse">
<stop stop-color="#FF0022"/>
<stop offset="1" stop-color="#FF7509"/>
</linearGradient>
<linearGradient id="paint1_linear_28_103" x1="29" y1="17.25" x2="5.1503" y2="17.3653" gradientUnits="userSpaceOnUse">
<stop stop-color="#FF0022"/>
<stop offset="1" stop-color="#FF7509"/>
</linearGradient>
</defs>
</svg>
