<svg width="29" height="24" viewBox="0 0 29 24" fill="none" xmlns="http://www.w3.org/2000/svg">
<g clip-path="url(#clip0_28_90)">
<path d="M29 23.6823C29 24.2066 28.8413 24.6356 28.0913 24.6356H1.36365C0.613644 24.6356 0 24.0994 0 23.444V1.4299C0 0.774488 0.490915 0.63562 1.09092 0.63562C1.69093 0.63562 2.18185 0.774488 2.18185 1.4299V21.5374C2.18185 22.1928 2.79549 22.729 3.5455 22.729H28.0913C28.8413 22.729 29 23.158 29 23.6823Z" fill="url(#paint0_linear_28_90)" stroke="url(#paint1_linear_28_90)" stroke-width="0.200629"/>
<path d="M26.4502 8.79448C26.7656 8.96767 26.9961 8.84414 26.9623 8.52001L26.435 3.44378C26.4012 3.11965 26.0883 2.94781 25.7395 3.06189L20.2769 4.84875C19.9282 4.96291 19.9006 5.1979 20.216 5.37109L21.2288 5.9272C21.5442 6.10038 21.6347 6.46447 21.4298 6.73633L17.3014 12.216C17.0967 12.4878 16.6441 12.6159 16.2957 12.5006L9.87922 10.3775C9.53085 10.2622 9.05175 10.3733 8.81457 10.6242L4.78506 14.8871C4.54788 15.1381 4.35215 15.6097 4.35024 15.9351L4.3296 19.4166C4.32778 19.7421 4.5247 19.8063 4.76724 19.5594L9.95676 14.2774C10.1995 14.0305 10.683 13.9227 11.0311 14.0381L17.4952 16.1788C17.8434 16.2941 18.2972 16.1669 18.5038 15.896L24.2894 8.30638C24.4959 8.03548 24.9228 7.95564 25.2381 8.12874L26.4502 8.79448Z" fill="url(#paint2_linear_28_90)" stroke="url(#paint3_linear_28_90)" stroke-width="0.200629"/>
</g>
<defs>
<linearGradient id="paint0_linear_28_90" x1="29" y1="17.8856" x2="5.15015" y2="18.0009" gradientUnits="userSpaceOnUse">
<stop stop-color="#FF0022"/>
<stop offset="1" stop-color="#FF7509"/>
</linearGradient>
<linearGradient id="paint1_linear_28_90" x1="29" y1="17.8856" x2="5.15015" y2="18.0009" gradientUnits="userSpaceOnUse">
<stop stop-color="#FF0022"/>
<stop offset="1" stop-color="#FF7509"/>
</linearGradient>
<linearGradient id="paint2_linear_28_90" x1="26.9656" y1="15.0175" x2="8.34967" y2="15.1185" gradientUnits="userSpaceOnUse">
<stop stop-color="#FF0022"/>
<stop offset="1" stop-color="#FF7509"/>
</linearGradient>
<linearGradient id="paint3_linear_28_90" x1="26.9656" y1="15.0175" x2="8.34967" y2="15.1185" gradientUnits="userSpaceOnUse">
<stop stop-color="#FF0022"/>
<stop offset="1" stop-color="#FF7509"/>
</linearGradient>
<clipPath id="clip0_28_90">
<rect width="29" height="24" fill="white"/>
</clipPath>
</defs>
</svg>
