<svg width="98" height="26" viewBox="0 0 98 26" fill="none" xmlns="http://www.w3.org/2000/svg">
<path d="M0.4 25V1.6H4.99V21.34H15.1V25H0.4ZM24.13 25.45C22.09 25.45 20.57 24.82 19.57 23.56C18.57 22.28 18.07 20.58 18.07 18.46V7H22.51V17.68C22.51 18.98 22.74 19.99 23.2 20.71C23.68 21.43 24.44 21.79 25.48 21.79C26.74 21.79 27.71 21.3 28.39 20.32C29.07 19.34 29.41 18.14 29.41 16.72V7H33.85V25H29.86V22.3H29.14C28.84 23.22 28.28 23.98 27.46 24.58C26.66 25.16 25.55 25.45 24.13 25.45ZM38.4545 25V7H42.8945V25H38.4545ZM40.6745 4.81C39.8745 4.81 39.2645 4.6 38.8445 4.18C38.4245 3.74 38.2145 3.18 38.2145 2.5C38.2145 1.82 38.4245 1.27 38.8445 0.849999C39.2645 0.41 39.8745 0.19 40.6745 0.19C41.4745 0.19 42.0845 0.41 42.5045 0.849999C42.9245 1.27 43.1345 1.82 43.1345 2.5C43.1345 3.18 42.9245 3.74 42.5045 4.18C42.0845 4.6 41.4745 4.81 40.6745 4.81ZM46.3848 25V21.34L53.1948 13.15C53.5548 12.73 53.9048 12.33 54.2448 11.95C54.6048 11.55 54.9348 11.2 55.2348 10.9V10.18H46.7748V7H60.6048V10.66L53.8248 18.85C53.4848 19.27 53.1448 19.67 52.8048 20.05C52.4648 20.43 52.1248 20.78 51.7848 21.1V21.82H60.9948V25H46.3848ZM71.7672 25V1.6H81.3672C83.3672 1.6 84.9872 1.89 86.2272 2.47C87.4672 3.03 88.3772 3.8 88.9572 4.78C89.5372 5.74 89.8272 6.86 89.8272 8.14C89.8272 9.62 89.4272 10.9 88.6272 11.98C87.8272 13.04 86.6472 13.79 85.0872 14.23L90.4572 24.82V25H85.5672L80.6172 14.89H76.2972V25H71.7672ZM76.2972 11.5H80.7972C82.2172 11.5 83.2972 11.26 84.0372 10.78C84.7772 10.28 85.1472 9.45 85.1472 8.29C85.1472 7.13 84.7672 6.31 84.0072 5.83C83.2672 5.35 82.1972 5.11 80.7972 5.11H76.2972V11.5ZM95.3134 25.18C94.4334 25.18 93.7534 24.94 93.2734 24.46C92.8134 23.96 92.5834 23.31 92.5834 22.51C92.5834 21.67 92.8134 21.01 93.2734 20.53C93.7534 20.05 94.4334 19.81 95.3134 19.81C96.1934 19.81 96.8534 20.05 97.2934 20.53C97.7534 21.01 97.9834 21.67 97.9834 22.51C97.9834 23.31 97.7534 23.96 97.2934 24.46C96.8534 24.94 96.1934 25.18 95.3134 25.18Z" fill="url(#paint0_linear_88_2)"/>
<defs>
<linearGradient id="paint0_linear_88_2" x1="101" y1="14.875" x2="16.301" y2="15.844" gradientUnits="userSpaceOnUse">
<stop stop-color="#FF0022"/>
<stop offset="1" stop-color="#FF7509"/>
</linearGradient>
</defs>
</svg>
