<svg width="29" height="24" viewBox="0 0 29 24" fill="none" xmlns="http://www.w3.org/2000/svg">
<path d="M24.4688 0C26.9713 0 29 1.98985 29 4.44444V15.1111C29 17.5657 26.9713 19.5556 24.4688 19.5556H18.125V22.2222H20.8438C21.3443 22.2222 21.75 22.6202 21.75 23.1111C21.75 23.602 21.3443 24 20.8438 24H8.15625C7.65574 24 7.25 23.602 7.25 23.1111C7.25 22.6202 7.65574 22.2222 8.15625 22.2222H10.875V19.5556H4.53125C2.09457 19.5556 0.107102 17.6691 0.00418643 15.3039L0 15.1111V4.44444C0 1.98985 2.02871 0 4.53125 0H24.4688ZM16.3125 22.2222V19.5556H12.6875V22.2222H16.3125ZM24.4688 1.77778H4.53125C3.02973 1.77778 1.8125 2.97169 1.8125 4.44444V15.1111C1.8125 16.5839 3.02973 17.7778 4.53125 17.7778H24.4688C25.9703 17.7778 27.1875 16.5839 27.1875 15.1111V4.44444C27.1875 2.97169 25.9703 1.77778 24.4688 1.77778Z" fill="url(#paint0_linear_10_78)"/>
<defs>
<linearGradient id="paint0_linear_10_78" x1="29" y1="17.25" x2="5.15015" y2="17.3652" gradientUnits="userSpaceOnUse">
<stop stop-color="#FF0022"/>
<stop offset="1" stop-color="#FF7509"/>
</linearGradient>
</defs>
</svg>
