<svg width="22" height="23" viewBox="0 0 22 23" fill="none" xmlns="http://www.w3.org/2000/svg">
<path d="M5.014 7.00613C5.12827 6.1024 6.30277 4.87414 7.23488 5.01043L7.23339 5.00894C8.14051 5.18132 8.85859 6.74261 9.2635 7.44465C9.5504 7.95402 9.3641 8.4701 9.0965 8.68787C8.7355 8.97883 8.17099 9.3803 8.28943 9.7834C8.5 10.5 11 13 12.2296 13.7107C12.695 13.9797 13.0325 13.2702 13.3207 12.9067C13.5301 12.6271 14.0466 12.46 14.5548 12.736C15.3138 13.178 16.0288 13.6917 16.69 14.27C17.0202 14.546 17.0977 14.9539 16.8689 15.385C16.4659 16.1443 15.3003 17.1456 14.4542 16.9421C12.9764 16.5868 7 14.27 5.08033 7.55801C4.97237 7.24048 4.99955 7.12044 5.014 7.00613Z" fill="white"/>
<path fill-rule="evenodd" clip-rule="evenodd" d="M11 22C9.7764 22 9.0994 21.8687 8 21.5L5.89443 22.5528C4.56462 23.2177 3 22.2507 3 20.7639V18.5C0.84655 16.492 0 14.1767 0 11C0 4.92487 4.92487 0 11 0C17.0751 0 22 4.92487 22 11C22 17.0751 17.0751 22 11 22ZM5 17.6303L4.36395 17.0372C2.69087 15.4772 2 13.7331 2 11C2 6.02944 6.02944 2 11 2C15.9706 2 20 6.02944 20 11C20 15.9706 15.9706 20 11 20C10.0143 20 9.552 19.911 8.63595 19.6038L7.84847 19.3397L5 20.7639V17.6303Z" fill="white"/>
</svg>
