<svg width="24" height="22" viewBox="0 0 24 22" fill="none" xmlns="http://www.w3.org/2000/svg">
<path d="M6.014 7.33895C6.12827 6.51053 7.30277 5.38463 8.23488 5.50956L8.23339 5.5082C9.14051 5.66621 9.85859 7.09739 10.2635 7.74093C10.5504 8.20785 10.3641 8.68093 10.0965 8.88055C9.7355 9.14726 9.17099 9.51528 9.28943 9.88478C9.5 10.5417 12 12.8333 13.2296 13.4848C13.695 13.7314 14.0325 13.081 14.3207 12.7478C14.5301 12.4915 15.0466 12.3383 15.5548 12.5913C16.3138 12.9965 17.0288 13.4674 17.69 13.9975C18.0202 14.2505 18.0977 14.6244 17.8689 15.0196C17.4659 15.7156 16.3003 16.6335 15.4542 16.4469C13.9764 16.1212 8 13.9975 6.08033 7.84484C5.97237 7.55377 5.99955 7.44374 6.014 7.33895Z" fill="url(#paint0_linear_28_12)"/>
<path fill-rule="evenodd" clip-rule="evenodd" d="M12 21.0834C10.7764 21.0834 10.0994 20.9631 9 20.6251L6.89443 21.5901C5.56462 22.1996 4 21.3132 4 19.9503V17.8751C1.84655 16.0344 1 13.9121 1 11.0001C1 5.43121 5.92487 0.916748 12 0.916748C18.0751 0.916748 23 5.43121 23 11.0001C23 16.5689 18.0751 21.0834 12 21.0834ZM6 17.0779L5.36395 16.5342C3.69087 15.1042 3 13.5054 3 11.0001C3 6.44373 7.02944 2.75008 12 2.75008C16.9706 2.75008 21 6.44373 21 11.0001C21 15.5565 16.9706 19.2501 12 19.2501C11.0143 19.2501 10.552 19.1685 9.63595 18.8869L8.84847 18.6448L6 19.9503V17.0779Z" fill="url(#paint1_linear_28_12)"/>
<defs>
<linearGradient id="paint0_linear_28_12" x1="18" y1="13.3857" x2="8.13106" y2="13.4289" gradientUnits="userSpaceOnUse">
<stop stop-color="#FF0022"/>
<stop offset="1" stop-color="#FF7509"/>
</linearGradient>
<linearGradient id="paint1_linear_28_12" x1="23" y1="15.9166" x2="4.90691" y2="15.9928" gradientUnits="userSpaceOnUse">
<stop stop-color="#FF0022"/>
<stop offset="1" stop-color="#FF7509"/>
</linearGradient>
</defs>
</svg>
